<svg width="25" height="26" viewBox="0 0 25 26" fill="none" xmlns="http://www.w3.org/2000/svg">
<path fill-rule="evenodd" clip-rule="evenodd" d="M18.8709 10.5836C18.3169 11.8731 17.4116 12.965 16.2824 13.7265C16.1317 13.8281 15.9771 13.9238 15.8188 14.0133C15.8188 14.0133 15.8187 14.0133 15.8187 14.0133C17.1638 13.2527 18.243 12.0452 18.8709 10.5836ZM5.74994 5.80369C5.60375 6.38789 5.52593 7.00049 5.52593 7.63165C5.52593 10.1837 6.79824 12.4323 8.71735 13.7265C8.868 13.8281 9.02263 13.9238 9.18094 14.0133C9.18099 14.0133 9.18103 14.0133 9.18108 14.0133C7.0059 12.7835 5.52595 10.3839 5.52595 7.63156C5.52595 7.00043 5.60377 6.38786 5.74994 5.80369ZM0.462855 20.8877C0.403628 21.215 0.373134 21.5482 0.373134 21.8862C0.373134 25.4456 10.4749 25.6259 12.5 25.6259C14.3983 25.6259 23.3957 25.4675 24.5129 22.5147C23.3955 25.4674 14.3983 25.6258 12.5 25.6258C10.4749 25.6258 0.373157 25.4455 0.373157 21.8861C0.373157 21.5482 0.403639 21.215 0.462855 20.8877ZM19.8472 7.63165C19.8472 10.1848 18.6335 12.4526 16.7689 13.8397C18.9933 14.3928 20.9341 15.3675 22.3731 16.6334C23.9997 18.0645 25 19.8842 25 21.8862C25 22.9865 24.2121 23.7631 23.1908 24.303C22.1608 24.8476 20.7896 25.212 19.3874 25.4593C16.5757 25.9551 13.5176 26 12.5 26C11.4823 26 8.42413 25.9551 5.61252 25.4593C4.21031 25.212 2.83916 24.8476 1.80912 24.303C0.7879 23.7631 0 22.9865 0 21.8862C0 19.884 1.00028 18.0644 2.62688 16.6333C4.06578 15.3674 6.00653 14.3928 8.23083 13.8397C6.36641 12.4528 5.1528 10.1847 5.1528 7.63165C5.1528 3.43647 8.43543 0 12.5 0C16.5646 0 19.8472 3.43647 19.8472 7.63165ZM7.04254 7.63136C7.04254 4.47913 9.5039 1.93786 12.5 1.93786C15.4961 1.93786 17.9575 4.47884 17.9575 7.63136C17.9575 10.7839 15.4961 13.3249 12.5 13.3249C9.50416 13.3249 7.04254 10.7839 7.04254 7.63136ZM12.5 24.0618C9.2366 24.0618 6.52257 23.7341 4.6352 23.2599C3.68881 23.0221 2.96879 22.7521 2.4944 22.4795C2.25691 22.343 2.0971 22.2149 2.00061 22.1037C1.90495 21.9935 1.88975 21.922 1.88975 21.8862C1.88975 20.13 3.01201 18.483 4.93727 17.2565C6.85777 16.0329 9.53192 15.263 12.5 15.263C15.4681 15.263 18.1422 16.0329 20.0627 17.2564C21.988 18.4829 23.1103 20.1298 23.1103 21.8862C23.1103 21.922 23.0951 21.9935 22.9994 22.1037C22.9029 22.2149 22.7431 22.343 22.5056 22.4795C22.0312 22.7521 21.3112 23.0221 20.3648 23.2599C18.4774 23.7341 15.7634 24.0618 12.5 24.0618ZM6.85442 6.11221C7.50404 3.49935 9.78878 1.56376 12.5 1.56376C15.7152 1.56376 18.3306 4.28549 18.3306 7.63136C18.3306 8.15415 18.2667 8.6617 18.1467 9.14602C18.2668 8.66167 18.3306 8.15409 18.3306 7.63127C18.3306 4.2854 15.7152 1.56367 12.5 1.56367C9.78878 1.56367 7.50401 3.4993 6.85442 6.11221ZM23.4761 21.9729C23.481 21.9439 23.4834 21.915 23.4834 21.8861C23.4834 18.0276 18.5565 14.8888 12.5 14.8888C7.2006 14.8888 2.76595 17.2922 1.74015 20.4778C2.766 17.2923 7.20062 14.8889 12.5 14.8889C18.5564 14.8889 23.4834 18.0277 23.4834 21.8862C23.4834 21.915 23.481 21.9439 23.4761 21.9729Z" fill="#333333"/>
</svg>
