<svg viewBox="0 0 21 21" xmlns="http://www.w3.org/2000/svg">
<path d="M15.709 13.5898C15.709 13.3529 15.6224 13.1478 15.4492 12.9746L12.9746 10.5L15.4492 8.02539C15.6224 7.85221 15.709 7.64714 15.709 7.41016C15.709 7.16406 15.6224 6.95443 15.4492 6.78125L14.2188 5.55078C14.0456 5.3776 13.8359 5.29102 13.5898 5.29102C13.3529 5.29102 13.1478 5.3776 12.9746 5.55078L10.5 8.02539L8.02539 5.55078C7.85221 5.3776 7.64714 5.29102 7.41016 5.29102C7.16406 5.29102 6.95443 5.3776 6.78125 5.55078L5.55078 6.78125C5.3776 6.95443 5.29102 7.16406 5.29102 7.41016C5.29102 7.64714 5.3776 7.85221 5.55078 8.02539L8.02539 10.5L5.55078 12.9746C5.3776 13.1478 5.29102 13.3529 5.29102 13.5898C5.29102 13.8359 5.3776 14.0456 5.55078 14.2188L6.78125 15.4492C6.95443 15.6224 7.16406 15.709 7.41016 15.709C7.64714 15.709 7.85221 15.6224 8.02539 15.4492L10.5 12.9746L12.9746 15.4492C13.1478 15.6224 13.3529 15.709 13.5898 15.709C13.8359 15.709 14.0456 15.6224 14.2188 15.4492L15.4492 14.2188C15.6224 14.0456 15.709 13.8359 15.709 13.5898ZM19.5918 5.23633C20.5306 6.8405 21 8.59505 21 10.5C21 12.4049 20.5306 14.1641 19.5918 15.7773C18.653 17.3815 17.377 18.653 15.7637 19.5918C14.1595 20.5306 12.4049 21 10.5 21C8.59505 21 6.83594 20.5306 5.22266 19.5918C3.61849 18.653 2.34701 17.3815 1.4082 15.7773C0.469401 14.1641 0 12.4049 0 10.5C0 8.59505 0.469401 6.8405 1.4082 5.23633C2.34701 3.62305 3.61849 2.34701 5.22266 1.4082C6.83594 0.469401 8.59505 0 10.5 0C12.4049 0 14.1595 0.469401 15.7637 1.4082C17.377 2.34701 18.653 3.62305 19.5918 5.23633Z"/>
</svg>
