<svg width="27" height="26" viewBox="0 0 27 26" fill="none" xmlns="http://www.w3.org/2000/svg">
<path fill-rule="evenodd" clip-rule="evenodd" d="M1.83735 0.949951C1.35052 0.949951 0.949951 1.35052 0.949951 1.83735C0.949951 2.32419 1.35052 2.72475 1.83735 2.72475H4.59267C4.9746 2.72475 5.30632 2.97936 5.40878 3.36296L8.70423 16.4908C9.0069 17.674 10.0529 18.5003 11.2649 18.5003H22.043C23.2541 18.5003 24.3283 17.6745 24.6039 16.4897L26.6297 8.17051C26.8224 7.39967 26.6574 6.57305 26.134 5.93902C25.6385 5.30628 24.868 4.92086 24.069 4.92086H7.65691L7.15331 2.95946C6.85062 1.7763 5.80459 0.949951 4.59267 0.949951H1.83735ZM10.4488 16.0873L8.11433 6.72267H24.069C24.3234 6.72267 24.5787 6.85033 24.7314 7.05384C24.8866 7.26081 24.9608 7.5147 24.8855 7.76582L22.859 16.0878C22.7565 16.4713 22.4249 16.7255 22.043 16.7255H11.2649C10.883 16.7255 10.5512 16.4709 10.4488 16.0873ZM11.832 19.481C10.2647 19.481 8.97266 20.773 8.97266 22.3403C8.97266 23.9077 10.2647 25.1996 11.832 25.1996C13.3994 25.1996 14.6914 23.9077 14.6914 22.3403C14.6914 20.773 13.3994 19.481 11.832 19.481ZM10.7745 22.3403C10.7745 21.7466 11.2383 21.2828 11.832 21.2828C12.4257 21.2828 12.8895 21.7466 12.8895 22.3403C12.8895 22.907 12.3987 23.3978 11.832 23.3978C11.2383 23.3978 10.7745 22.934 10.7745 22.3403ZM21.1249 19.481C19.5575 19.481 18.2655 20.773 18.2655 22.3403C18.2655 23.9077 19.5575 25.1996 21.1249 25.1996C22.6922 25.1996 23.9842 23.9077 23.9842 22.3403L23.9842 22.3394C23.9567 20.7736 22.693 19.481 21.1249 19.481ZM20.0673 22.3403C20.0673 21.7466 20.5312 21.2828 21.1249 21.2828C21.7185 21.2828 22.1824 21.7466 22.1824 22.3403C22.1824 22.907 21.6915 23.3978 21.1249 23.3978C20.5312 23.3978 20.0673 22.934 20.0673 22.3403Z"/>
</svg>
