<svg width="18" height="18" viewBox="0 0 18 18" fill="none" xmlns="http://www.w3.org/2000/svg">
<path d="M16.0714 0C16.6071 0 17.0625 0.1875 17.4375 0.5625C17.8125 0.9375 18 1.39286 18 1.92857V16.0714C18 16.6071 17.8125 17.0625 17.4375 17.4375C17.0625 17.8125 16.6071 18 16.0714 18H10.567V11.8929H12.8973L13.3393 9H10.567V7.11161C10.567 6.09375 11.1027 5.58482 12.1741 5.58482H13.4196V3.13393C12.6696 3 11.933 2.93304 11.2098 2.93304C10.433 2.93304 9.76339 3.08036 9.20089 3.375C8.66518 3.66964 8.23661 4.11161 7.91518 4.70089C7.59375 5.29018 7.43304 5.98661 7.43304 6.79018V9H4.90179V11.8929H7.43304V18H1.92857C1.39286 18 0.9375 17.8125 0.5625 17.4375C0.1875 17.0625 0 16.6071 0 16.0714V1.92857C0 1.39286 0.1875 0.9375 0.5625 0.5625C0.9375 0.1875 1.39286 0 1.92857 0H16.0714Z" fill="#DF4444"/>
</svg>
