<svg viewBox="0 0 18 18" xmlns="http://www.w3.org/2000/svg">
<path d="M5.70536 5.74554C6.61607 4.83482 7.71429 4.37946 9 4.37946C10.2857 4.37946 11.3705 4.83482 12.2545 5.74554C13.1652 6.62946 13.6205 7.71429 13.6205 9C13.6205 10.2857 13.1652 11.3839 12.2545 12.2946C11.3705 13.1786 10.2857 13.6205 9 13.6205C7.71429 13.6205 6.61607 13.1786 5.70536 12.2946C4.82143 11.3839 4.37946 10.2857 4.37946 9C4.37946 7.71429 4.82143 6.62946 5.70536 5.74554ZM6.87054 11.1295C7.45982 11.7188 8.16964 12.0134 9 12.0134C9.83036 12.0134 10.5402 11.7188 11.1295 11.1295C11.7188 10.5402 12.0134 9.83036 12.0134 9C12.0134 8.16964 11.7188 7.45982 11.1295 6.87054C10.5402 6.28125 9.83036 5.98661 9 5.98661C8.16964 5.98661 7.45982 6.28125 6.87054 6.87054C6.28125 7.45982 5.98661 8.16964 5.98661 9C5.98661 9.83036 6.28125 10.5402 6.87054 11.1295ZM14.5446 3.45536C14.7589 3.64286 14.8661 3.88393 14.8661 4.17857C14.8661 4.47321 14.7589 4.72768 14.5446 4.94196C14.3571 5.15625 14.1161 5.26339 13.8214 5.26339C13.5268 5.26339 13.2723 5.15625 13.058 4.94196C12.8438 4.72768 12.7366 4.47321 12.7366 4.17857C12.7366 3.88393 12.8438 3.64286 13.058 3.45536C13.2723 3.24107 13.5268 3.13393 13.8214 3.13393C14.1161 3.13393 14.3571 3.24107 14.5446 3.45536ZM17.9598 5.30357C17.9866 6.02679 18 7.25893 18 9C18 10.7411 17.9866 11.9732 17.9598 12.6964C17.8795 14.3304 17.3839 15.6027 16.4732 16.5134C15.5893 17.3973 14.3304 17.8661 12.6964 17.9196C11.9732 17.9732 10.7411 18 9 18C7.25893 18 6.02679 17.9732 5.30357 17.9196C3.66964 17.8393 2.41071 17.3571 1.52679 16.4732C1.17857 16.1518 0.897321 15.7768 0.683036 15.3482C0.46875 14.9196 0.308036 14.5045 0.200893 14.1027C0.120536 13.7009 0.0803571 13.2321 0.0803571 12.6964C0.0267857 11.9732 0 10.7411 0 9C0 7.25893 0.0267857 6.01339 0.0803571 5.26339C0.160714 3.65625 0.642857 2.41071 1.52679 1.52679C2.41071 0.616071 3.66964 0.120536 5.30357 0.0401786C6.02679 0.0133929 7.25893 0 9 0C10.7411 0 11.9732 0.0133929 12.6964 0.0401786C14.3304 0.120536 15.5893 0.616071 16.4732 1.52679C17.3839 2.41071 17.8795 3.66964 17.9598 5.30357ZM16.0312 14.3036C16.1116 14.0893 16.1786 13.8214 16.2321 13.5C16.2857 13.1518 16.3259 12.75 16.3527 12.2946C16.3795 11.8125 16.3929 11.4241 16.3929 11.1295C16.3929 10.8348 16.3929 10.4196 16.3929 9.88393C16.3929 9.34821 16.3929 9.05357 16.3929 9C16.3929 8.91964 16.3929 8.625 16.3929 8.11607C16.3929 7.58036 16.3929 7.16518 16.3929 6.87054C16.3929 6.57589 16.3795 6.20089 16.3527 5.74554C16.3259 5.26339 16.2857 4.86161 16.2321 4.54018C16.1786 4.19196 16.1116 3.91071 16.0312 3.69643C15.7098 2.86607 15.1339 2.29018 14.3036 1.96875C14.0893 1.88839 13.808 1.82143 13.4598 1.76786C13.1384 1.71429 12.7366 1.67411 12.2545 1.64732C11.7991 1.62054 11.4241 1.60714 11.1295 1.60714C10.8616 1.60714 10.4464 1.60714 9.88393 1.60714C9.34821 1.60714 9.05357 1.60714 9 1.60714C8.94643 1.60714 8.65179 1.60714 8.11607 1.60714C7.58036 1.60714 7.16518 1.60714 6.87054 1.60714C6.57589 1.60714 6.1875 1.62054 5.70536 1.64732C5.25 1.67411 4.84821 1.71429 4.5 1.76786C4.17857 1.82143 3.91071 1.88839 3.69643 1.96875C2.86607 2.29018 2.29018 2.86607 1.96875 3.69643C1.88839 3.91071 1.82143 4.19196 1.76786 4.54018C1.71429 4.86161 1.67411 5.26339 1.64732 5.74554C1.62054 6.20089 1.60714 6.57589 1.60714 6.87054C1.60714 7.13839 1.60714 7.55357 1.60714 8.11607C1.60714 8.65179 1.60714 8.94643 1.60714 9C1.60714 9.10714 1.60714 9.36161 1.60714 9.76339C1.60714 10.1384 1.60714 10.4598 1.60714 10.7277C1.60714 10.9688 1.60714 11.2902 1.60714 11.692C1.63393 12.0938 1.66071 12.442 1.6875 12.7366C1.71429 13.0045 1.75446 13.2857 1.80804 13.5804C1.86161 13.875 1.91518 14.1161 1.96875 14.3036C2.31696 15.1339 2.89286 15.7098 3.69643 16.0312C3.91071 16.1116 4.17857 16.1786 4.5 16.2321C4.84821 16.2857 5.25 16.3259 5.70536 16.3527C6.1875 16.3795 6.5625 16.3929 6.83036 16.3929C7.125 16.3929 7.54018 16.3929 8.07589 16.3929C8.63839 16.3929 8.94643 16.3929 9 16.3929C9.08036 16.3929 9.375 16.3929 9.88393 16.3929C10.4196 16.3929 10.8348 16.3929 11.1295 16.3929C11.4241 16.3929 11.7991 16.3795 12.2545 16.3527C12.7366 16.3259 13.1384 16.2857 13.4598 16.2321C13.808 16.1786 14.0893 16.1116 14.3036 16.0312C15.1339 15.683 15.7098 15.1071 16.0312 14.3036Z"/>
</svg>
