<svg width="12" height="12" viewBox="0 0 12 12" fill="none" xmlns="http://www.w3.org/2000/svg">
<path d="M11.5551 0.5808L9.11962 0.0180463C8.86202 -0.0522978 8.58101 0.0883905 8.46392 0.346319L7.33987 2.9725C7.24619 3.20698 7.31645 3.46491 7.50379 3.62905L8.93227 4.80145C8.08923 6.5835 6.61391 8.08418 4.78733 8.95175L3.61644 7.52142C3.45252 7.33384 3.19492 7.26349 2.96074 7.35729L0.337954 8.48279C0.0803588 8.60003 -0.03673 8.88141 0.0101055 9.13934L0.572132 11.5779C0.642385 11.8359 0.853145 12 1.13416 12C7.12911 12 12 7.14625 12 1.1201C12 0.862176 11.8127 0.651144 11.5551 0.5808Z"/>
</svg>
