<svg width="64" height="64" viewBox="0 0 64 64" fill="none" xmlns="http://www.w3.org/2000/svg">
<circle cx="32" cy="32" r="32" fill="#1A2240"/>
<path d="M28.5344 30.4517C29.4526 30.8942 30.1635 31.5431 30.6671 32.3984C31.1707 33.2243 31.4225 34.2124 31.4225 35.3627C31.4225 37.0735 30.8745 38.445 29.7785 39.4774C28.6825 40.5097 27.2755 41.0259 25.5574 41.0259C23.8394 41.0259 22.4324 40.5097 21.3364 39.4774C20.2404 38.445 19.6924 37.0735 19.6924 35.3627C19.6924 34.5959 19.7961 33.829 20.0034 33.0621C20.2108 32.2952 20.6847 31.1301 21.4252 29.5669L24.5355 22.9746H30.756L28.5344 30.4517ZM41.4197 30.4517C42.3379 30.8942 43.0489 31.5431 43.5524 32.3984C44.056 33.2243 44.3078 34.2124 44.3078 35.3627C44.3078 37.0735 43.7598 38.445 42.6638 39.4774C41.5678 40.5097 40.1608 41.0259 38.4427 41.0259C36.7247 41.0259 35.3177 40.5097 34.2217 39.4774C33.1257 38.445 32.5777 37.0735 32.5777 35.3627C32.5777 34.5959 32.6814 33.829 32.8887 33.0621C33.0961 32.2952 33.57 31.1301 34.3105 29.5669L37.4208 22.9746H43.6413L41.4197 30.4517Z" fill="white"/>
</svg>
