<svg width="15" height="14" viewBox="0 0 15 14" fill="none" xmlns="http://www.w3.org/2000/svg">
<path d="M6.53516 0.478516C6.64453 0.259766 6.78125 0.123047 7 0.0410156C7.21875 -0.0136719 7.41016 -0.0136719 7.62891 0.0410156C7.84766 0.123047 8.01172 0.259766 8.12109 0.478516L9.89844 4.08789L13.8906 4.66211C14.1094 4.7168 14.3008 4.82617 14.4375 4.99023C14.5742 5.18164 14.6289 5.37305 14.6289 5.5918C14.6289 5.81055 14.5469 6.00195 14.3828 6.16602L11.4844 8.98242L12.168 12.9746C12.1953 13.1934 12.1406 13.4121 12.0312 13.6035C11.9219 13.7949 11.7578 13.9043 11.5391 13.959C11.3203 14.0137 11.1016 13.9863 10.9102 13.877L7.32812 12.0176L3.74609 13.877C3.52734 13.9863 3.33594 14.0137 3.11719 13.959C2.89844 13.9043 2.70703 13.7949 2.59766 13.6035C2.48828 13.4121 2.43359 13.1934 2.48828 12.9746L3.17188 8.98242L0.273438 6.16602C0.109375 6.00195 0 5.81055 0 5.5918C0 5.37305 0.0546875 5.18164 0.191406 4.99023C0.328125 4.82617 0.519531 4.7168 0.765625 4.66211L4.75781 4.08789L6.53516 0.478516Z" stroke="#FFC700"/>
</svg>
